<svg width="31" height="36" viewBox="0 0 31 36" fill="none" xmlns="http://www.w3.org/2000/svg">
<path d="M25.6203 19.1504C25.6044 16.2611 26.9218 14.0804 29.5882 12.4743C28.0963 10.3566 25.8425 9.19143 22.8666 8.96312C20.0494 8.74269 16.9703 10.5928 15.8434 10.5928C14.653 10.5928 11.9231 9.04185 9.78046 9.04185C5.35229 9.11271 0.646362 12.5452 0.646362 19.5283C0.646362 21.5909 1.02728 23.7218 1.78912 25.9209C2.8049 28.8101 6.47124 35.8955 10.2963 35.7774C12.2961 35.7302 13.7087 34.3682 16.3116 34.3682C18.8352 34.3682 20.1446 35.7774 22.3746 35.7774C26.2314 35.7223 29.5485 29.2825 30.5167 26.3853C25.3426 23.9684 25.6203 19.2999 25.6203 19.1504ZM21.1287 6.22343C23.2951 3.67269 23.0967 1.35025 23.0332 0.515747C21.1207 0.625964 18.9066 1.80687 17.6448 3.26331C16.2561 4.8221 15.4387 6.7509 15.6133 8.92376C17.6845 9.08121 19.5732 8.02628 21.1287 6.22343Z" fill="#012038"/>
</svg>
