<svg width="52" height="36" viewBox="0 0 52 36" fill="none" xmlns="http://www.w3.org/2000/svg">
<path d="M43.3708 15.8332C43.6989 14.991 43.8829 14.07 43.8829 13.1097C43.8829 8.93797 40.4425 5.55334 36.2019 5.55334C34.6258 5.55334 33.1536 6.02562 31.9374 6.82848C29.7212 3.05029 25.5846 0.515747 20.8401 0.515747C13.7672 0.515747 8.03849 6.15156 8.03849 13.1097C8.03849 13.3223 8.04649 13.5348 8.05449 13.7473C3.57394 15.2979 0.357544 19.5012 0.357544 24.4443C0.357544 30.702 5.51818 35.7789 11.879 35.7789H41.3226C46.9793 35.7789 51.5638 31.2687 51.5638 25.7037C51.5638 20.8314 48.0434 16.762 43.3708 15.8332Z" fill="#012038"/>
</svg>
