<svg width="28" height="38" viewBox="0 0 28 38" fill="none" xmlns="http://www.w3.org/2000/svg">
<path d="M16.3262 10.4658V0.578979H1.78673C0.819854 0.578979 0.0419922 1.35684 0.0419922 2.32372V36.0553C0.0419922 37.0222 0.819854 37.8 1.78673 37.8H26.213C27.1799 37.8 27.9578 37.0222 27.9578 36.0553V12.2106H18.0709C17.1113 12.2106 16.3262 11.4254 16.3262 10.4658ZM20.9788 27.6224C20.9788 28.1022 20.5863 28.4948 20.1065 28.4948H7.89331C7.4135 28.4948 7.02094 28.1022 7.02094 27.6224V27.0408C7.02094 26.561 7.4135 26.1685 7.89331 26.1685H20.1065C20.5863 26.1685 20.9788 26.561 20.9788 27.0408V27.6224ZM20.9788 22.9698C20.9788 23.4496 20.5863 23.8421 20.1065 23.8421H7.89331C7.4135 23.8421 7.02094 23.4496 7.02094 22.9698V22.3882C7.02094 21.9084 7.4135 21.5158 7.89331 21.5158H20.1065C20.5863 21.5158 20.9788 21.9084 20.9788 22.3882V22.9698ZM20.9788 17.7356V18.3171C20.9788 18.7969 20.5863 19.1895 20.1065 19.1895H7.89331C7.4135 19.1895 7.02094 18.7969 7.02094 18.3171V17.7356C7.02094 17.2558 7.4135 16.8632 7.89331 16.8632H20.1065C20.5863 16.8632 20.9788 17.2558 20.9788 17.7356ZM27.9578 9.44079V9.88424H18.6525V0.578979H19.096C19.5612 0.578979 20.0047 0.760723 20.3318 1.08786L27.4489 8.2122C27.776 8.53934 27.9578 8.98279 27.9578 9.44079Z" fill="#012038"/>
</svg>
