<svg width="95" height="20" viewBox="0 0 95 20" fill="none" xmlns="http://www.w3.org/2000/svg">
<path d="M15.1802 11.4458L14.9687 11.9977L15.548 12.1148C17.0188 12.4119 18.1275 13.7152 18.1275 15.2745C18.1275 17.0561 16.6836 18.5 14.902 18.5H4.19118C2.15344 18.5 0.5 16.8465 0.5 14.8088C0.5 13.1997 1.52983 11.8302 2.96586 11.325L3.31322 11.2028L3.2996 10.8349C3.29663 10.7547 3.29412 10.6854 3.29412 10.6176C3.29412 8.32084 5.15421 6.46075 7.45098 6.46075C8.99094 6.46075 10.3342 7.29617 11.0548 8.54492L11.3222 9.00831L11.7665 8.71019C12.1293 8.46675 12.5683 8.3235 13.0392 8.3235C14.3057 8.3235 15.3333 9.35117 15.3333 10.6176C15.3333 10.9097 15.2783 11.1897 15.1802 11.4458Z" stroke="white"/>
<path d="M24.1213 5.48501L23.9098 6.03694L24.4892 6.15401C25.96 6.45119 27.0686 7.75442 27.0686 9.31373C27.0686 11.0953 25.6247 12.5392 23.8431 12.5392H13.1323C11.0946 12.5392 9.44116 10.8858 9.44116 8.84804C9.44116 7.239 10.471 5.86946 11.907 5.36428L12.2544 5.24209L12.2408 4.87411C12.2378 4.79398 12.2353 4.72465 12.2353 4.65686C12.2353 2.36009 14.0954 0.5 16.3921 0.5C17.9321 0.5 19.2754 1.33541 19.996 2.58417L20.2634 3.04755L20.7077 2.74944C21.0704 2.506 21.5095 2.36275 21.9804 2.36275C23.2468 2.36275 24.2745 3.39042 24.2745 4.65686C24.2745 4.94892 24.2195 5.22891 24.1213 5.48501Z" stroke="white"/>
<path d="M33.8076 11.4458L33.5961 11.9977L34.1755 12.1148C35.6463 12.4119 36.7549 13.7152 36.7549 15.2745C36.7549 17.0561 35.311 18.5 33.5294 18.5H22.8186C20.7809 18.5 19.1274 16.8465 19.1274 14.8088C19.1274 13.1997 20.1573 11.8302 21.5933 11.325L21.9407 11.2028L21.927 10.8349C21.9241 10.7547 21.9216 10.6854 21.9216 10.6176C21.9216 8.32084 23.7816 6.46075 26.0784 6.46075C27.6184 6.46075 28.9616 7.29617 29.6823 8.54492L29.9497 9.00831L30.3939 8.71019C30.7567 8.46675 31.1958 8.3235 31.6667 8.3235C32.9331 8.3235 33.9608 9.35117 33.9608 10.6176C33.9608 10.9097 33.9057 11.1897 33.8076 11.4458Z" stroke="white"/>
<path d="M38.2784 7.36362H40.4091L44.1137 16.4091H44.25L47.9546 7.36362H50.0853V19H48.4148V10.5795H48.3069L44.875 18.9829H43.4887L40.0569 10.5738H39.9489V19H38.2784V7.36362Z" fill="white"/>
<path d="M62.3026 11.1477H60.5299C60.4617 10.7689 60.3348 10.4356 60.1492 10.1477C59.9636 9.85983 59.7363 9.61551 59.4674 9.41476C59.1984 9.214 58.8973 9.06248 58.564 8.96021C58.2344 8.85794 57.884 8.8068 57.5128 8.8068C56.8424 8.8068 56.242 8.97536 55.7117 9.31248C55.1852 9.64961 54.7685 10.1439 54.4617 10.7954C54.1587 11.447 54.0071 12.2424 54.0071 13.1818C54.0071 14.1288 54.1587 14.928 54.4617 15.5795C54.7685 16.231 55.1871 16.7235 55.7174 17.0568C56.2477 17.3901 56.8443 17.5568 57.5071 17.5568C57.8746 17.5568 58.223 17.5076 58.5526 17.4091C58.8859 17.3068 59.1871 17.1572 59.456 16.9602C59.7249 16.7632 59.9522 16.5227 60.1378 16.2386C60.3272 15.9507 60.4579 15.6212 60.5299 15.25L62.3026 15.2557C62.2079 15.8276 62.0242 16.3541 61.7515 16.8352C61.4825 17.3125 61.1359 17.7254 60.7117 18.0738C60.2912 18.4185 59.8102 18.6856 59.2685 18.875C58.7268 19.0644 58.1359 19.1591 57.4958 19.1591C56.4882 19.1591 55.5905 18.9204 54.8026 18.4432C54.0147 17.9621 53.3935 17.2746 52.939 16.3807C52.4882 15.4867 52.2628 14.4204 52.2628 13.1818C52.2628 11.9394 52.4901 10.8731 52.9446 9.98294C53.3992 9.089 54.0204 8.40339 54.8083 7.92612C55.5961 7.44506 56.492 7.20453 57.4958 7.20453C58.1132 7.20453 58.689 7.29354 59.223 7.47157C59.7609 7.64582 60.2439 7.90339 60.6719 8.2443C61.0999 8.58142 61.4541 8.9943 61.7344 9.48294C62.0147 9.96779 62.2041 10.5227 62.3026 11.1477Z" fill="white"/>
<path d="M65.9659 7.36362V19H64.2671V7.36362H65.9659Z" fill="white"/>
<path d="M71.9276 19.1761C71.1094 19.1761 70.3954 18.9886 69.7855 18.6136C69.1757 18.2386 68.7022 17.714 68.3651 17.0398C68.028 16.3655 67.8594 15.5776 67.8594 14.6761C67.8594 13.7708 68.028 12.9792 68.3651 12.3011C68.7022 11.6231 69.1757 11.0966 69.7855 10.7216C70.3954 10.3466 71.1094 10.1591 71.9276 10.1591C72.7458 10.1591 73.4598 10.3466 74.0696 10.7216C74.6795 11.0966 75.153 11.6231 75.4901 12.3011C75.8272 12.9792 75.9958 13.7708 75.9958 14.6761C75.9958 15.5776 75.8272 16.3655 75.4901 17.0398C75.153 17.714 74.6795 18.2386 74.0696 18.6136C73.4598 18.9886 72.7458 19.1761 71.9276 19.1761ZM71.9333 17.75C72.4636 17.75 72.903 17.6098 73.2515 17.3295C73.5999 17.0492 73.8575 16.6761 74.0242 16.2102C74.1946 15.7443 74.2799 15.231 74.2799 14.6704C74.2799 14.1136 74.1946 13.6023 74.0242 13.1363C73.8575 12.6667 73.5999 12.2898 73.2515 12.0057C72.903 11.7216 72.4636 11.5795 71.9333 11.5795C71.3992 11.5795 70.956 11.7216 70.6037 12.0057C70.2552 12.2898 69.9958 12.6667 69.8253 13.1363C69.6587 13.6023 69.5753 14.1136 69.5753 14.6704C69.5753 15.231 69.6587 15.7443 69.8253 16.2102C69.9958 16.6761 70.2552 17.0492 70.6037 17.3295C70.956 17.6098 71.3992 17.75 71.9333 17.75Z" fill="white"/>
<path d="M83.4205 15.3807V10.2727H85.125V19H83.4546V17.4886H83.3637C83.1629 17.9545 82.8409 18.3428 82.3978 18.6534C81.9584 18.9602 81.411 19.1136 80.7557 19.1136C80.1951 19.1136 79.6989 18.9905 79.2671 18.7443C78.839 18.4943 78.5019 18.125 78.2557 17.6363C78.0133 17.1477 77.8921 16.5435 77.8921 15.8238V10.2727H79.5909V15.6193C79.5909 16.214 79.7557 16.6875 80.0853 17.0398C80.4148 17.392 80.8428 17.5682 81.3694 17.5682C81.6875 17.5682 82.0038 17.4886 82.3182 17.3295C82.6364 17.1704 82.8997 16.9299 83.108 16.6079C83.3201 16.286 83.4243 15.8769 83.4205 15.3807Z" fill="white"/>
<path d="M90.6747 19.1704C89.9702 19.1704 89.3414 18.9905 88.7884 18.6307C88.2391 18.267 87.8073 17.75 87.4929 17.0795C87.1823 16.4053 87.027 15.5966 87.027 14.6534C87.027 13.7102 87.1842 12.9034 87.4986 12.2329C87.8168 11.5625 88.2524 11.0492 88.8054 10.6932C89.3585 10.3371 89.9854 10.1591 90.6861 10.1591C91.2278 10.1591 91.6634 10.25 91.9929 10.4318C92.3263 10.6098 92.5838 10.8182 92.7657 11.0568C92.9513 11.2954 93.0952 11.5057 93.1975 11.6875H93.2997V7.36362H94.9986V19H93.3395V17.642H93.1975C93.0952 17.8276 92.9475 18.0398 92.7543 18.2784C92.5649 18.517 92.3035 18.7254 91.9702 18.9034C91.6369 19.0814 91.2051 19.1704 90.6747 19.1704ZM91.0497 17.7216C91.5384 17.7216 91.9513 17.5928 92.2884 17.3352C92.6293 17.0738 92.8869 16.7121 93.0611 16.25C93.2391 15.7879 93.3282 15.25 93.3282 14.6363C93.3282 14.0303 93.241 13.5 93.0668 13.0454C92.8926 12.5909 92.6369 12.2367 92.2997 11.9829C91.9626 11.7292 91.546 11.6023 91.0497 11.6023C90.5384 11.6023 90.1122 11.7348 89.7713 12C89.4304 12.2651 89.1729 12.6269 88.9986 13.0852C88.8282 13.5435 88.7429 14.0606 88.7429 14.6363C88.7429 15.2197 88.8301 15.7443 89.0043 16.2102C89.1785 16.6761 89.4361 17.0454 89.777 17.3182C90.1217 17.5871 90.546 17.7216 91.0497 17.7216Z" fill="white"/>
</svg>
