<svg width="38" height="19" viewBox="0 0 38 19" fill="none" xmlns="http://www.w3.org/2000/svg">
<path d="M15.1802 11.4458L14.9687 11.9977L15.548 12.1148C17.0188 12.4119 18.1275 13.7152 18.1275 15.2745C18.1275 17.0561 16.6836 18.5 14.902 18.5H4.19118C2.15344 18.5 0.5 16.8465 0.5 14.8088C0.5 13.1997 1.52983 11.8302 2.96586 11.325L3.31322 11.2028L3.2996 10.8349C3.29663 10.7547 3.29412 10.6854 3.29412 10.6176C3.29412 8.32084 5.15421 6.46075 7.45098 6.46075C8.99094 6.46075 10.3342 7.29617 11.0548 8.54492L11.3222 9.00831L11.7665 8.71019C12.1293 8.46675 12.5683 8.3235 13.0392 8.3235C14.3057 8.3235 15.3333 9.35117 15.3333 10.6176C15.3333 10.9097 15.2783 11.1897 15.1802 11.4458Z" stroke="white"/>
<path d="M24.1213 5.48501L23.9098 6.03694L24.4892 6.15401C25.96 6.45119 27.0686 7.75442 27.0686 9.31373C27.0686 11.0953 25.6247 12.5392 23.8431 12.5392H13.1323C11.0946 12.5392 9.44116 10.8858 9.44116 8.84804C9.44116 7.239 10.471 5.86946 11.907 5.36428L12.2544 5.24209L12.2408 4.87411C12.2378 4.79398 12.2353 4.72465 12.2353 4.65686C12.2353 2.36009 14.0954 0.5 16.3921 0.5C17.9321 0.5 19.2754 1.33541 19.996 2.58417L20.2634 3.04755L20.7077 2.74944C21.0704 2.506 21.5095 2.36275 21.9804 2.36275C23.2468 2.36275 24.2745 3.39042 24.2745 4.65686C24.2745 4.94892 24.2195 5.22891 24.1213 5.48501Z" stroke="white"/>
<path d="M33.8076 11.4458L33.5961 11.9977L34.1755 12.1148C35.6463 12.4119 36.7549 13.7152 36.7549 15.2745C36.7549 17.0561 35.311 18.5 33.5294 18.5H22.8186C20.7809 18.5 19.1274 16.8465 19.1274 14.8088C19.1274 13.1997 20.1573 11.8302 21.5933 11.325L21.9407 11.2028L21.927 10.8349C21.9241 10.7547 21.9216 10.6854 21.9216 10.6176C21.9216 8.32084 23.7816 6.46075 26.0784 6.46075C27.6184 6.46075 28.9616 7.29617 29.6823 8.54492L29.9497 9.00831L30.3939 8.71019C30.7567 8.46675 31.1958 8.3235 31.6667 8.3235C32.9331 8.3235 33.9608 9.35117 33.9608 10.6176C33.9608 10.9097 33.9057 11.1897 33.8076 11.4458Z" stroke="white"/>
</svg>
